<?xml version="1.0" encoding="UTF-8"?>
<svg width="200px" height="157px" viewBox="0 0 200 157" version="1.1" xmlns="http://www.w3.org/2000/svg" xmlns:xlink="http://www.w3.org/1999/xlink">
    <!-- Generator: Sketch 55.2 (78181) - https://sketchapp.com -->
    <title>编组 15</title>
    <desc>Created with Sketch.</desc>
    <defs>
        <linearGradient x1="100%" y1="-10.1672226%" x2="100%" y2="120.161078%" id="linearGradient-1">
            <stop stop-color="#3023AE" offset="0%"></stop>
            <stop stop-color="#4A90E2" offset="100%"></stop>
        </linearGradient>
        <linearGradient x1="104.47571%" y1="41.8374335%" x2="-8.2068599%" y2="75.4716442%" id="linearGradient-2">
            <stop stop-color="#3023AE" offset="0%"></stop>
            <stop stop-color="#4A90E2" offset="100%"></stop>
            <stop stop-color="#4A90E2" offset="100%"></stop>
        </linearGradient>
        <linearGradient x1="44.6733209%" y1="74.4447858%" x2="15.7077702%" y2="-12.5373069%" id="linearGradient-3">
            <stop stop-color="#3023AE" offset="0%"></stop>
            <stop stop-color="#4A90E2" offset="100%"></stop>
        </linearGradient>
    </defs>
    <g id="页面1" stroke="none" stroke-width="1" fill="none" fill-rule="evenodd">
        <g id="账号图标" transform="translate(0.000000, -22.000000)">
            <g id="编组-15" transform="translate(0.000000, 22.000000)">
                <g id="编组-14" transform="translate(61.691542, 113.000000)">
                    <path d="M37.1199558,28.6 L37.1199558,19.7835268 C37.1199558,18.5775983 38.097554,17.6 39.3034826,17.6 C40.5094111,17.6 41.4870094,18.5775983 41.4870094,19.7835268 L41.4870094,28.6 L50.2046434,28.6 C51.4196699,28.6 52.4046434,29.5849736 52.4046434,30.8 C52.4046434,32.0150264 51.4196699,33 50.2046434,33 L41.4870094,33 L41.4870094,41.8164732 C41.4870094,43.0224017 40.5094111,44 39.3034826,44 C38.097554,44 37.1199558,43.0224017 37.1199558,41.8164732 L37.1199558,33 L28.4023217,33 C27.1872953,33 26.2023217,32.0150264 26.2023217,30.8 C26.2023217,29.5849736 27.1872953,28.6 28.4023217,28.6 L37.1199558,28.6 Z" id="形状结合" fill="#3023AE"></path>
                    <path d="M50.657822,7.04 L50.657822,1.74682145 C50.657822,0.782078602 51.4399006,-4.60080574e-14 52.4046434,-4.61852778e-14 C53.3693863,-4.63624982e-14 54.1514649,0.782078602 54.1514649,1.74682145 L54.1514649,7.04 L59.3787507,7.04 C60.3507719,7.04 61.1387507,7.82797884 61.1387507,8.8 C61.1387507,9.77202116 60.3507719,10.56 59.3787507,10.56 L54.1514649,10.56 L54.1514649,15.8531786 C54.1514649,16.8179214 53.3693863,17.6 52.4046434,17.6 C51.4399006,17.6 50.657822,16.8179214 50.657822,15.8531786 L50.657822,10.56 L45.4305362,10.56 C44.458515,10.56 43.6705362,9.77202116 43.6705362,8.8 C43.6705362,7.82797884 44.458515,7.04 45.4305362,7.04 L50.657822,7.04 Z" id="形状结合" fill="#5AC8FA"></path>
                    <path d="M68.1260365,24.64 L68.1260365,19.3468214 C68.1260365,18.3820786 68.9081151,17.6 69.8728579,17.6 C70.8376008,17.6 71.6196794,18.3820786 71.6196794,19.3468214 L71.6196794,24.64 L76.8469652,24.64 C77.8189863,24.64 78.6069652,25.4279788 78.6069652,26.4 C78.6069652,27.3720212 77.8189863,28.16 76.8469652,28.16 L71.6196794,28.16 L71.6196794,33.4531786 C71.6196794,34.4179214 70.8376008,35.2 69.8728579,35.2 C68.9081151,35.2 68.1260365,34.4179214 68.1260365,33.4531786 L68.1260365,28.16 L62.8987507,28.16 C61.9267295,28.16 61.1387507,27.3720212 61.1387507,26.4 C61.1387507,25.4279788 61.9267295,24.64 62.8987507,24.64 L68.1260365,24.64 Z" id="形状结合" fill="#5AC8FA"></path>
                    <path d="M24.4555003,7.04 L24.4555003,1.74682145 C24.4555003,0.782078602 25.2375789,-9.04169784e-14 26.2023217,-9.05941988e-14 C27.1670646,-9.07714192e-14 27.9491432,0.782078602 27.9491432,1.74682145 L27.9491432,7.04 L33.176429,7.04 C34.1484501,7.04 34.936429,7.82797884 34.936429,8.8 C34.936429,9.77202116 34.1484501,10.56 33.176429,10.56 L27.9491432,10.56 L27.9491432,15.8531786 C27.9491432,16.8179214 27.1670646,17.6 26.2023217,17.6 C25.2375789,17.6 24.4555003,16.8179214 24.4555003,15.8531786 L24.4555003,10.56 L19.2282145,10.56 C18.2561933,10.56 17.4682145,9.77202116 17.4682145,8.8 C17.4682145,7.82797884 18.2561933,7.04 19.2282145,7.04 L24.4555003,7.04 Z" id="形状结合" fill="#5AC8FA"></path>
                    <path d="M6.98728579,24.64 L6.98728579,19.3468214 C6.98728579,18.3820786 7.76936439,17.6 8.73410724,17.6 C9.69885009,17.6 10.4809287,18.3820786 10.4809287,19.3468214 L10.4809287,24.64 L15.7082145,24.64 C16.6802356,24.64 17.4682145,25.4279788 17.4682145,26.4 C17.4682145,27.3720212 16.6802356,28.16 15.7082145,28.16 L10.4809287,28.16 L10.4809287,33.4531786 C10.4809287,34.4179214 9.69885009,35.2 8.73410724,35.2 C7.76936439,35.2 6.98728579,34.4179214 6.98728579,33.4531786 L6.98728579,28.16 L1.76,28.16 C0.78797884,28.16 1.1903826e-16,27.3720212 0,26.4 C-1.1903826e-16,25.4279788 0.78797884,24.64 1.76,24.64 L6.98728579,24.64 Z" id="形状结合" fill="#5AC8FA"></path>
                </g>
                <g id="编组-11" fill-rule="nonzero">
                    <path d="M53.6477524,35 C24.0368679,35 0,58.4870926 0,87.5 C0,116.512907 24.0368679,140 53.6477524,140 C57.6362495,140 60.8695652,136.805139 60.8695652,132.864078 C60.8695652,128.923017 57.6362495,125.728155 53.6477524,125.728155 C31.9779601,125.728155 14.4436256,108.594869 14.4436256,87.5 C14.4436256,66.4051308 31.9779601,49.2718447 53.6477524,49.2718447 C57.6362495,49.2718447 60.8695652,46.0769834 60.8695652,42.1359223 C60.8695652,38.1948613 57.6362495,35 53.6477524,35 Z" id="路径" fill="url(#linearGradient-1)"></path>
                    <path d="M151.989191,42.1828606 C146.427983,17.6367052 125.235388,0 100.607071,0 C71.4569385,0 47.826087,24.5130172 47.826087,54.7513562 C47.826087,59.6367404 48.4446793,64.4439587 49.6537825,69.0802254 C50.6497835,72.8993586 54.4418025,75.1578176 58.1234941,74.1246349 C61.8051858,73.0914521 63.9823682,69.1578728 62.9863672,65.3387396 C62.0946527,61.9194896 61.6379333,58.3702217 61.6379333,54.7513562 C61.6379333,32.4258535 79.0850107,14.3274577 100.607071,14.3274577 C118.789258,14.3274577 134.441196,27.3531684 138.543679,45.4607768 C139.416275,49.3122582 152.861788,46.0343421 151.989191,42.1828606 Z" id="路径" fill="url(#linearGradient-2)"></path>
                    <path d="M148.143237,140 C176.801052,140 200,116.477013 200,87.5 C200,58.5229873 176.801052,35 148.143237,35 C136.174035,35 124.811881,39.1265077 115.675714,46.5612929 C112.623641,49.0449947 112.157713,53.5389983 114.635036,56.598931 C117.112358,59.6588637 121.59482,60.1259912 124.646894,57.6422895 C131.271861,52.2510558 139.474985,49.2718447 148.143237,49.2718447 C168.902943,49.2718447 185.76481,66.3692361 185.76481,87.5 C185.76481,108.630764 168.902943,125.728155 148.143237,125.728155 C144.212298,125.728155 141.025642,128.923017 141.025642,132.864078 C141.025642,136.805139 144.212298,140 148.143237,140 Z" id="形状" fill="url(#linearGradient-3)"></path>
                </g>
            </g>
        </g>
    </g>
</svg>