<?xml version="1.0" encoding="utf-8"?>
<!-- Generator: Adobe Illustrator 23.0.2, SVG Export Plug-In . SVG Version: 6.00 Build 0)  -->
<svg version="1.1" id="图层_1" xmlns="http://www.w3.org/2000/svg" xmlns:xlink="http://www.w3.org/1999/xlink" x="0px" y="0px"
	 viewBox="0 0 469.53 222.25" style="enable-background:new 0 0 469.53 222.25;" xml:space="preserve">
<style type="text/css">
	.st0{display:none;fill:#FFFFFF;}
	.st1{fill:none;stroke:#DDDDDD;stroke-miterlimit:10;}
	.st2{fill:none;}
	.st3{display:none;fill:none;stroke:#DDDDDD;stroke-miterlimit:10;}
	.st4{fill:none;stroke:#888888;stroke-miterlimit:10;}
	.st5{font-family:'ArialMT';}
	.st6{font-size:10px;}
	.st7{display:none;fill:none;stroke:#888888;stroke-miterlimit:10;}
	.st8{fill:#4C78A8;}
	.st9{fill:#F58518;}
	.st10{font-size:11px;}
	.st11{display:none;}
	.st12{font-family:'Arial-BoldMT';}
	.st13{fill:#2171B0;}
	.st14{fill:#A3DBB8;}
	.st15{fill:#C0E6B5;}
	.st16{fill:#D7EFB4;}
	.st17{fill:#1C3185;}
	.st18{fill:#EBF7BB;}
	.st19{fill:#EFF9BD;}
	.st20{fill:#E7F6BA;}
	.st21{fill:#D1EDB4;}
	.st22{fill:#FFFFFF;}
	.st23{fill:url(#SVGID_1_);}
</style>
<rect x="-37.16" y="-114.44" class="st0" width="281" height="212"/>
<rect x="235.84" y="-117.44" class="st0" width="198" height="220"/>
<rect x="-29.47" y="109" class="st0" width="248" height="158"/>
<g transform="translate(0,0)">
	<path class="st1" d="M57.03,0.5h200v140h-200V0.5z"/>
	<g>
		<g>
			<g transform="translate(0.5,140.5)">
				<path pointer-events="none" class="st2" d="M56.53,0L56.53,0L56.53,0L56.53,0z"/>
				<g>
					<g pointer-events="none">
						<line class="st1" x1="56.53" y1="0" x2="56.53" y2="-140"/>
						<line class="st1" x1="98.53" y1="0" x2="98.53" y2="-140"/>
						<line class="st1" x1="139.53" y1="0" x2="139.53" y2="-140"/>
						<line class="st1" x1="181.53" y1="0" x2="181.53" y2="-140"/>
						<line class="st1" x1="223.53" y1="0" x2="223.53" y2="-140"/>
					</g>
				</g>
				<path pointer-events="none" class="st3" d="M56.53,0"/>
			</g>
		</g>
		<g>
			<g transform="translate(0.5,140.5)">
				<path pointer-events="none" class="st2" d="M56.53,0L56.53,0L56.53,0L56.53,0z"/>
				<g>
					<g pointer-events="none">
						<line class="st4" x1="56.53" y1="0" x2="56.53" y2="5"/>
						<line class="st4" x1="98.53" y1="0" x2="98.53" y2="5"/>
						<line class="st4" x1="139.53" y1="0" x2="139.53" y2="5"/>
						<line class="st4" x1="181.53" y1="0" x2="181.53" y2="5"/>
						<line class="st4" x1="223.53" y1="0" x2="223.53" y2="5"/>
					</g>
					<g pointer-events="none">
						<text transform="matrix(1 0 0 1 56.5293 15)" class="st5 st6">0</text>
						<text transform="matrix(1 0 0 1 92.6345 15)" class="st5 st6">50</text>
						<text transform="matrix(1 0 0 1 131.5203 15)" class="st5 st6">100</text>
						<text transform="matrix(1 0 0 1 173.187 15)" class="st5 st6">150</text>
						<text transform="matrix(1 0 0 1 214.8536 15)" class="st5 st6">200</text>
					</g>
					<g pointer-events="none">
						<line class="st4" x1="56.53" y1="0" x2="256.53" y2="0"/>
					</g>
				</g>
				<path pointer-events="none" class="st7" d="M56.53,0"/>
			</g>
		</g>
		<g>
			<g transform="translate(0.5,0.5)">
				<path pointer-events="none" class="st2" d="M56.53,0L56.53,0L56.53,0L56.53,0z"/>
				<g>
					<g pointer-events="none">
						<line class="st4" x1="56.53" y1="10" x2="51.53" y2="10"/>
						<line class="st4" x1="56.53" y1="30" x2="51.53" y2="30"/>
						<line class="st4" x1="56.53" y1="50" x2="51.53" y2="50"/>
						<line class="st4" x1="56.53" y1="70" x2="51.53" y2="70"/>
						<line class="st4" x1="56.53" y1="90" x2="51.53" y2="90"/>
						<line class="st4" x1="56.53" y1="110" x2="51.53" y2="110"/>
						<line class="st4" x1="56.53" y1="130" x2="51.53" y2="130"/>
					</g>
					<g pointer-events="none">
						<text transform="matrix(1 0 0 1 23.4063 12.5)" class="st5 st6">select</text>
						<text transform="matrix(1 0 0 1 36.1895 32.5)" class="st5 st6">set</text>
						<text transform="matrix(1 0 0 1 11.7217 52.5)" class="st5 st6">navigate</text>
						<text transform="matrix(1 0 0 1 30.6377 72.5)" class="st5 st6">filter</text>
						<text transform="matrix(1 0 0 1 -0.5 92.5)" class="st5 st6">reconfigure</text>
						<text transform="matrix(1 0 0 1 16.1602 112.5)" class="st5 st6">append</text>
						<text transform="matrix(1 0 0 1 16.7217 132.5)" class="st5 st6">encode</text>
					</g>
					<g pointer-events="none">
						<line class="st4" x1="56.53" y1="0" x2="56.53" y2="140"/>
					</g>
				</g>
				<path pointer-events="none" class="st7" d="M56.53,0"/>
			</g>
		</g>
		<g>
			<path class="st8" d="M99.86,1H225.7v18H99.86L99.86,1z"/>
			<path class="st9" d="M56.53,1h43.33v18H56.53V1z"/>
			<path class="st8" d="M78.2,61h3.33v18H78.2V61z"/>
			<path class="st9" d="M56.53,61H78.2v18H56.53V61z"/>
			<path class="st8" d="M75.7,41h10v18h-10V41z"/>
			<path class="st9" d="M56.53,41H75.7v18H56.53V41z"/>
			<path class="st8" d="M63.2,81h1.67v18H63.2V81z"/>
			<path class="st9" d="M56.53,81h6.67v18h-6.67V81z"/>
			<path class="st8" d="M58.2,121h1.67v18H58.2V121z"/>
			<path class="st9" d="M56.53,121h1.67v18h-1.67V121z"/>
			<path class="st8" d="M118.2,21h6.67v18h-6.67V21z"/>
			<path class="st9" d="M56.53,21h61.67v18H56.53V21z"/>
			<path class="st9" d="M56.53,101h7.5v18h-7.5V101z"/>
		</g>
		<g>
			<text transform="matrix(1 0 0 1 228.5194 13)" class="st5 st10">203</text>
			<text transform="matrix(1 0 0 1 87.4116 73)" class="st5 st10">30</text>
			<text transform="matrix(1 0 0 1 91.5783 53)" class="st5 st10">35</text>
			<text transform="matrix(1 0 0 1 70.7449 93)" class="st5 st10">10</text>
			<text transform="matrix(1 0 0 1 68.8038 133)" class="st5 st10">4</text>
			<text transform="matrix(1 0 0 1 130.7449 33)" class="st5 st10">82</text>
			<text transform="matrix(1 0 0 1 72.9705 113)" class="st5 st10">9</text>
		</g>
		<g>
			<g transform="translate(0,175)">
				<path pointer-events="none" class="st2" d="M56.53,5h223v27h-223V5z"/>
				<g>
					<g>
						<g transform="translate(0,16)">
							<path pointer-events="none" class="st2" d="M56.53,5L56.53,5L56.53,5L56.53,5z"/>
							<g>
								<g>
									<g transform="translate(0,0)">
										<path pointer-events="none" class="st2" d="M180.53,5h85.17v11h-85.17V5z"/>
										<g>
											<g pointer-events="none">
												<path class="st8" d="M181.53,6h10v10h-10V6z"/>
											</g>
											<g pointer-events="none">
												<text transform="matrix(1 0 0 1 196.5293 14)" class="st5 st6">user-triggered</text>
											</g>
										</g>
										<path pointer-events="none" class="st11" d="M56.53,5"/>
									</g>
									<g transform="translate(96,0)">
										<path pointer-events="none" class="st2" d="M-39.47,5H86.62v11H-39.47V5z"/>
										<g>
											<g pointer-events="none">
												<path class="st9" d="M-38.47,6h10v10h-10V6z"/>
											</g>
											<g pointer-events="none">
												<text transform="matrix(1 0 0 1 -23.4707 14)" class="st5 st6">coordination-triggered</text>
											</g>
										</g>
										<path pointer-events="none" class="st11" d="M56.53,5"/>
									</g>
								</g>
							</g>
							<path pointer-events="none" class="st11" d="M56.53,5"/>
						</g>
					</g>
					<g pointer-events="none">
						<text transform="matrix(1 0 0 1 56.5293 14)" class="st12 st10">source</text>
					</g>
				</g>
				<path pointer-events="none" class="st11" d="M56.53,5"/>
			</g>
		</g>
	</g>
	<path class="st11" d="M56.53,0"/>
</g>
<g transform="translate(68,5)">
	<g>
		<g transform="translate(0,0)">
			<path class="st1" d="M261.03-4.5h140v120h-140V-4.5z"/>
			<g>
				<path class="st13" d="M260.53-5h20v20h-20V-5z"/>
				<path class="st14" d="M320.53-5h20v20h-20V-5z"/>
				<path class="st15" d="M300.53-5h20v20h-20V-5z"/>
				<path class="st16" d="M340.53-5h20v20h-20V-5z"/>
				<path class="st17" d="M280.53-5h20v20h-20V-5z"/>
				<path class="st16" d="M360.53-5h20v20h-20V-5z"/>
				<path class="st18" d="M320.53,55h20v20h-20V55z"/>
				<path class="st19" d="M360.53,55h20v20h-20V55z"/>
				<path class="st20" d="M260.53,35h20v20h-20V35z"/>
				<path class="st19" d="M320.53,35h20v20h-20V35z"/>
				<path class="st21" d="M300.53,35h20v20h-20V35z"/>
				<path class="st19" d="M260.53,75h20v20h-20V75z"/>
				<path class="st19" d="M280.53,75h20v20h-20V75z"/>
				<path class="st18" d="M380.53,95h20v20h-20V95z"/>
				<path class="st19" d="M340.53,15h20v20h-20V15z"/>
				<path class="st20" d="M280.53,15h20v20h-20V15z"/>
			</g>
			<g>
				<text transform="matrix(1 0 0 1 264.4116 8)" class="st22 st5 st10">41</text>
				<text transform="matrix(1 0 0 1 324.4116 8)" class="st5 st10">15</text>
				<text transform="matrix(1 0 0 1 304.8198 8)" class="st5 st10">11</text>
				<text transform="matrix(1 0 0 1 347.4705 8)" class="st5 st10">7</text>
				<text transform="matrix(1 0 0 1 284.4116 8)" class="st22 st5 st10">54</text>
				<text transform="matrix(1 0 0 1 367.4705 8)" class="st5 st10">7</text>
				<text transform="matrix(1 0 0 1 327.4705 68)" class="st5 st10">2</text>
				<text transform="matrix(1 0 0 1 367.4705 68)" class="st5 st10">1</text>
				<text transform="matrix(1 0 0 1 267.4705 48)" class="st5 st10">3</text>
				<text transform="matrix(1 0 0 1 327.4705 48)" class="st5 st10">1</text>
				<text transform="matrix(1 0 0 1 307.4705 48)" class="st5 st10">8</text>
				<text transform="matrix(1 0 0 1 267.4705 88)" class="st5 st10">1</text>
				<text transform="matrix(1 0 0 1 287.4705 88)" class="st5 st10">1</text>
				<text transform="matrix(1 0 0 1 387.4705 108)" class="st5 st10">2</text>
				<text transform="matrix(1 0 0 1 347.4705 28)" class="st5 st10">1</text>
				<text transform="matrix(1 0 0 1 287.4705 28)" class="st5 st10">3</text>
			</g>
			<g>
				<g transform="translate(0,201)">
					<path pointer-events="none" class="st2" d="M260.53-29h140v44h-140V-29z"/>
					<g>
						<g>
							<g transform="translate(0,16)">
								<path pointer-events="none" class="st2" d="M260.53-29L260.53-29L260.53-29L260.53-29z"/>
								<g>
									<g pointer-events="none">
										
											<linearGradient id="SVGID_1_" gradientUnits="userSpaceOnUse" x1="-119.3898" y1="578.8125" x2="-118.3898" y2="578.8125" gradientTransform="matrix(140 0 0 -16 16975.0977 9240)">
											<stop  offset="0" style="stop-color:#EFF9BD"/>
											<stop  offset="0.0755" style="stop-color:#E0F3B6"/>
											<stop  offset="0.1698" style="stop-color:#C6E9B5"/>
											<stop  offset="0.2642" style="stop-color:#A3DBB8"/>
											<stop  offset="0.3585" style="stop-color:#7BCCBC"/>
											<stop  offset="0.4528" style="stop-color:#56BCC0"/>
											<stop  offset="0.5472" style="stop-color:#39AAC1"/>
											<stop  offset="0.6415" style="stop-color:#2792BD"/>
											<stop  offset="0.7358" style="stop-color:#2177B3"/>
											<stop  offset="0.8302" style="stop-color:#225BA6"/>
											<stop  offset="0.9245" style="stop-color:#214296"/>
											<stop  offset="1" style="stop-color:#1C3185"/>
										</linearGradient>
										<path class="st23" d="M260.53-29h140v16h-140V-29z"/>
									</g>
									<g pointer-events="none">
										<text transform="matrix(1 0 0 1 260.5293 -3)" class="st5 st6">1</text>
										<text transform="matrix(1 0 0 1 389.4063 -3)" class="st5 st6">54</text>
									</g>
								</g>
								<path pointer-events="none" class="st11" d="M260.53-29"/>
							</g>
						</g>
						<g pointer-events="none">
							<text transform="matrix(1 0 0 1 260.5293 -20)" class="st12 st10">count</text>
						</g>
					</g>
					<path pointer-events="none" class="st11" d="M260.53-29"/>
				</g>
			</g>
			<g>
				<g transform="translate(0.5,120.5)">
					<path pointer-events="none" class="st2" d="M260.53-5L260.53-5L260.53-5L260.53-5z"/>
					<g>
						<g pointer-events="none">
							<line class="st4" x1="270.53" y1="-5" x2="270.53" y2="0"/>
							<line class="st4" x1="290.53" y1="-5" x2="290.53" y2="0"/>
							<line class="st4" x1="310.53" y1="-5" x2="310.53" y2="0"/>
							<line class="st4" x1="330.53" y1="-5" x2="330.53" y2="0"/>
							<line class="st4" x1="350.53" y1="-5" x2="350.53" y2="0"/>
							<line class="st4" x1="370.53" y1="-5" x2="370.53" y2="0"/>
							<line class="st4" x1="390.53" y1="-5" x2="390.53" y2="0"/>
						</g>
						<g pointer-events="none">
							<text transform="matrix(0 -1 1 0 273.0293 28.123)" class="st5 st6">select</text>
							<text transform="matrix(0 -1 1 0 293.0293 15.3398)" class="st5 st6">set</text>
							<text transform="matrix(0 -1 1 0 313.0293 39.8076)" class="st5 st6">navigate</text>
							<text transform="matrix(0 -1 1 0 333.0293 20.8916)" class="st5 st6">filter</text>
							<text transform="matrix(0 -1 1 0 353.0293 52.0293)" class="st5 st6">reconfigure</text>
							<text transform="matrix(0 -1 1 0 373.0293 35.3691)" class="st5 st6">append</text>
							<text transform="matrix(0 -1 1 0 393.0293 34.8076)" class="st5 st6">encode</text>
						</g>
						<g pointer-events="none">
							<line class="st4" x1="260.53" y1="-5" x2="400.53" y2="-5"/>
						</g>
					</g>
					<path pointer-events="none" class="st7" d="M260.53-5"/>
				</g>
			</g>
			<g>
				<g transform="translate(0.5,0.5)">
					<path pointer-events="none" class="st2" d="M260.53-5L260.53-5L260.53-5L260.53-5z"/>
					<g>
						<g pointer-events="none">
							<line class="st4" x1="260.53" y1="5" x2="255.53" y2="5"/>
							<line class="st4" x1="260.53" y1="25" x2="255.53" y2="25"/>
							<line class="st4" x1="260.53" y1="45" x2="255.53" y2="45"/>
							<line class="st4" x1="260.53" y1="65" x2="255.53" y2="65"/>
							<line class="st4" x1="260.53" y1="85" x2="255.53" y2="85"/>
							<line class="st4" x1="260.53" y1="105" x2="255.53" y2="105"/>
						</g>
						<g pointer-events="none">
							<text transform="matrix(1 0 0 1 227.4063 7.5)" class="st5 st6">select</text>
							<text transform="matrix(1 0 0 1 240.1895 27.5)" class="st5 st6">set</text>
							<text transform="matrix(1 0 0 1 215.7217 47.5)" class="st5 st6">navigate</text>
							<text transform="matrix(1 0 0 1 234.6377 67.5)" class="st5 st6">filter</text>
							<text transform="matrix(1 0 0 1 203.5 87.5)" class="st5 st6">reconfigure</text>
							<text transform="matrix(1 0 0 1 220.7217 107.5)" class="st5 st6">encode</text>
						</g>
						<g pointer-events="none">
							<line class="st4" x1="260.53" y1="-5" x2="260.53" y2="115"/>
						</g>
					</g>
					<path pointer-events="none" class="st7" d="M260.53-5"/>
				</g>
			</g>
			<path class="st7" d="M260.53-5"/>
		</g>
	</g>
</g>
</svg>
